<?xml version="1.0" encoding="utf-8"?>
<!-- Generator: Adobe Illustrator 27.2.0, SVG Export Plug-In . SVG Version: 6.00 Build 0)  -->
<!DOCTYPE svg PUBLIC "-//W3C//DTD SVG 1.1 Tiny//EN" "http://www.w3.org/Graphics/SVG/1.1/DTD/svg11-tiny.dtd" [
	<!ENTITY ns_extend "http://ns.adobe.com/Extensibility/1.0/">
	<!ENTITY ns_ai "http://ns.adobe.com/AdobeIllustrator/10.0/">
	<!ENTITY ns_graphs "http://ns.adobe.com/Graphs/1.0/">
	<!ENTITY ns_vars "http://ns.adobe.com/Variables/1.0/">
	<!ENTITY ns_imrep "http://ns.adobe.com/ImageReplacement/1.0/">
	<!ENTITY ns_sfw "http://ns.adobe.com/SaveForWeb/1.0/">
	<!ENTITY ns_custom "http://ns.adobe.com/GenericCustomNamespace/1.0/">
	<!ENTITY ns_adobe_xpath "http://ns.adobe.com/XPath/1.0/">
]>
<svg version="1.1" baseProfile="tiny" id="Capa_1" xmlns:x="&ns_extend;" xmlns:i="&ns_ai;" xmlns:graph="&ns_graphs;"
	 xmlns="http://www.w3.org/2000/svg" xmlns:xlink="http://www.w3.org/1999/xlink" x="0px" y="0px" viewBox="0 0 48 48"
	 overflow="visible" xml:space="preserve">
<metadata>
	<sfw  xmlns="&ns_sfw;">
		<slices></slices>
		<sliceSourceBounds  bottomLeftOrigin="true" height="48" width="47.6" x="0.2" y="0"></sliceSourceBounds>
	</sfw>
</metadata>
<g>
	<path fill="#829C35" d="M47.7,37.2c-0.1-0.4-1-1-2.6-1.8c-0.4-0.3-1-0.6-1.8-1c-0.8-0.4-1.5-0.8-2.1-1.2c-0.6-0.4-1.2-0.7-1.8-1.1
		c-0.1-0.1-0.4-0.3-0.8-0.6c-0.5-0.3-0.9-0.6-1.2-0.7c-0.3-0.2-0.6-0.2-1-0.2c-0.5,0-1,0.3-1.7,1c-0.7,0.6-1.3,1.4-1.9,2.1
		c-0.6,0.8-1.2,1.5-1.8,2.1c-0.6,0.6-1.1,1-1.6,1c-0.2,0-0.5-0.1-0.8-0.2c-0.3-0.1-0.5-0.2-0.7-0.3c-0.2-0.1-0.4-0.2-0.8-0.5
		c-0.4-0.2-0.6-0.4-0.6-0.4c-3.1-1.7-5.7-3.7-7.9-5.9c-2.2-2.2-4.2-4.9-5.9-8c0,0-0.2-0.3-0.4-0.6c-0.2-0.4-0.4-0.7-0.5-0.8
		c-0.1-0.2-0.2-0.4-0.3-0.7s-0.2-0.6-0.2-0.8c0-0.4,0.3-0.9,1-1.6c0.6-0.6,1.3-1.2,2.1-1.8c0.8-0.6,1.5-1.2,2.1-1.9
		c0.6-0.7,1-1.2,1-1.7c0-0.3-0.1-0.6-0.2-1c-0.2-0.3-0.4-0.7-0.7-1.2C16.2,8.9,16,8.6,16,8.5c-0.3-0.6-0.7-1.2-1-1.8
		c-0.4-0.6-0.8-1.4-1.2-2.2c-0.4-0.8-0.8-1.4-1-1.8c-0.8-1.6-1.4-2.5-1.8-2.6C10.8,0,10.5,0,10.2,0C9.6,0,8.8,0.1,7.8,0.3
		c-1,0.2-1.8,0.5-2.3,0.7C4.4,1.5,3.2,2.9,1.9,5.2c-1.1,2.1-1.7,4.2-1.7,6.3c0,0.6,0,1.2,0.1,1.8c0.1,0.6,0.2,1.2,0.4,2
		C1,16,1.1,16.6,1.2,16.9c0.1,0.4,0.4,1,0.7,1.9c0.3,0.9,0.5,1.5,0.6,1.7c0.8,2.2,1.7,4.2,2.8,6c1.8,2.9,4.2,5.9,7.3,9
		c3.1,3.1,6.1,5.6,8.9,7.3c1.7,1.1,3.7,2,5.9,2.8c0.2,0.1,0.8,0.3,1.7,0.6c0.9,0.3,1.5,0.6,1.9,0.7c0.3,0.1,0.9,0.3,1.6,0.5
		c0.7,0.2,1.4,0.3,1.9,0.4c0.6,0.1,1.2,0.1,1.8,0.1c2.1,0,4.2-0.6,6.3-1.7c2.3-1.3,3.6-2.5,4.1-3.6c0.2-0.6,0.5-1.3,0.7-2.3
		c0.2-1,0.3-1.8,0.3-2.4C47.8,37.6,47.8,37.4,47.7,37.2z"/>
</g>
</svg>
